<?xml version="1.0" encoding="UTF-8" standalone="no"?>
<svg
   width="256"
   height="256"
   viewBox="0 0 256 256"
   fill="none"
   version="1.1"
   id="svg1"
   sodipodi:docname="a.svg"
   inkscape:version="1.3 (0e150ed, 2023-07-21)"
   xmlns:inkscape="http://www.inkscape.org/namespaces/inkscape"
   xmlns:sodipodi="http://sodipodi.sourceforge.net/DTD/sodipodi-0.dtd"
   xmlns="http://www.w3.org/2000/svg"
   xmlns:svg="http://www.w3.org/2000/svg">
  <defs
     id="defs1" />
  <sodipodi:namedview
     id="namedview1"
     pagecolor="#ffffff"
     bordercolor="#000000"
     borderopacity="0.25"
     inkscape:showpageshadow="2"
     inkscape:pageopacity="0.0"
     inkscape:pagecheckerboard="0"
     inkscape:deskcolor="#d1d1d1"
     inkscape:zoom="0.93303299"
     inkscape:cx="11.789508"
     inkscape:cy="14.468942"
     inkscape:window-width="1368"
     inkscape:window-height="722"
     inkscape:window-x="0"
     inkscape:window-y="37"
     inkscape:window-maximized="0"
     inkscape:current-layer="svg1" />
  <path
     fill-rule="evenodd"
     clip-rule="evenodd"
     d="m 127.99969,0 c 8.61189,0 16.37902,4.4387713 19.69194,11.252811 l 79.81302,164.189739 c 0.13119,0.25417 0.25599,0.51016 0.37332,0.76981 l 26.47563,54.46478 c 4.531,9.32188 -0.61117,20.02704 -11.48643,23.91177 -10.87525,3.88381 -23.36537,-0.52479 -27.89637,-9.84667 L 193.77493,201.13897 H 62.225515 l -21.195868,43.60327 c -4.531001,9.32188 -17.021118,13.73048 -27.896373,9.84667 C 2.258019,250.70418 -2.8852215,239.99902 1.6468459,230.67714 L 28.121415,176.21236 c 0.118395,-0.25965 0.243189,-0.51564 0.374383,-0.76889 L 108.30883,11.252811 C 111.62068,4.4387713 119.3878,0 127.99969,0 Z M 80.0018,164.56825 h 95.99578 L 127.99969,65.827299 Z"
     fill="#333333"
     id="path1"
     inkscape:export-filename="a.svg"
     inkscape:export-xdpi="877.69733"
     inkscape:export-ydpi="877.69733"
     style="stroke-width:9.87509" />
</svg>
