<?xml version="1.0" encoding="UTF-8" standalone="no"?>
<!-- Uploaded to: SVG Repo, www.svgrepo.com, Generator: SVG Repo Mixer Tools -->

<svg
   width="256"
   height="256.00031"
   viewBox="0 0 163.84 163.8402"
   version="1.1"
   id="svg1"
   sodipodi:docname="filterResonance.svg"
   inkscape:version="1.3 (0e150ed, 2023-07-21)"
   xmlns:inkscape="http://www.inkscape.org/namespaces/inkscape"
   xmlns:sodipodi="http://sodipodi.sourceforge.net/DTD/sodipodi-0.dtd"
   xmlns="http://www.w3.org/2000/svg"
   xmlns:svg="http://www.w3.org/2000/svg">
  <defs
     id="defs1" />
  <sodipodi:namedview
     id="namedview1"
     pagecolor="#ffffff"
     bordercolor="#000000"
     borderopacity="0.25"
     inkscape:showpageshadow="2"
     inkscape:pageopacity="0.0"
     inkscape:pagecheckerboard="0"
     inkscape:deskcolor="#d1d1d1"
     inkscape:zoom="0.295"
     inkscape:cx="369.49153"
     inkscape:cy="366.10169"
     inkscape:window-width="1312"
     inkscape:window-height="449"
     inkscape:window-x="0"
     inkscape:window-y="37"
     inkscape:window-maximized="0"
     inkscape:current-layer="svg1" />
  <path
     fill="#000000"
     d="M 82.099571,3.1846411e-4 C 61.013354,-0.05819454 39.906144,7.9464575 23.839359,24.013586 -3.6533989,51.506344 -7.2605869,93.570005 12.468113,125.21792 5.1966021,105.04933 10.723033,78.258045 27.569769,54.823373 18.323253,73.504336 19.382004,95.961835 30.566006,113.9014 25.034068,98.558115 29.502437,78.03948 42.785698,60.355312 35.137635,74.398561 35.657373,91.677265 44.198628,105.3777 39.395011,92.053815 44.83264,73.428269 59.081719,59.178845 74.183719,44.07719 94.274171,38.736969 107.68444,45.147987 93.945461,35.522166 75.975954,34.524338 61.351356,42.14521 79.998932,28.69639 101.56289,24.819696 116.7888,32.096715 98.778331,19.480508 75.416289,17.778108 55.952965,26.980911 80.677341,9.9242145 108.84301,5.1966655 128.87804,14.772233 114.88505,4.9694945 98.498161,0.04644146 82.099221,3.1846411e-4 Z M 128.87873,14.772577 l 0.003,0.0021 v -6.88e-4 c -0.001,0 -0.002,-10e-4 -0.003,-0.0014 z M 116.7888,32.096715 c 0,6.88e-4 0.001,0.0014 0.002,0.0021 v -6.88e-4 c -0.001,0 -0.002,-10e-4 -0.003,-0.0014 z m 32.27607,2.862 c 9.57832,20.035724 4.85112,48.20414 -12.20868,72.930935 9.20384,-19.463675 7.5035,-42.826752 -5.11408,-60.838252 7.27771,15.2266 3.39998,36.792967 -10.05056,55.441582 7.62225,-14.624255 6.62511,-32.595487 -2.99934,-46.335154 6.40896,13.409926 1.06942,33.499689 -14.03223,48.600664 -14.249769,14.24976 -32.875316,19.6867 -46.199537,14.8824 13.702493,8.54194 30.985668,9.06134 45.029957,1.40983 -17.685889,13.2867 -38.207279,17.75714 -53.552971,12.22348 17.938874,11.18297 40.396372,12.2431 59.076991,2.99796 -23.434669,16.84605 -50.225269,22.37179 -70.392476,15.09993 31.647907,19.7287 73.712256,16.12151 101.204326,-11.37124 28.5639,-28.56356 31.64825,-73.05657 9.23894,-105.042135 z m -30.37231,21.198767 -0.001,-0.0024 h -6.9e-4 z m 13.04989,-9.106428 -0.001,-0.0024 h -6.9e-4 z"
     id="path1"
     style="stroke-width:0.344197" />
</svg>
