<?xml version="1.0" encoding="UTF-8" standalone="no"?>
<!-- Uploaded to: SVG Repo, www.svgrepo.com, Generator: SVG Repo Mixer Tools -->

<svg
   fill="#000000"
   width="255.99998"
   height="159.6631"
   viewBox="0 0 81.919995 51.092192"
   version="1.1"
   id="svg1"
   sodipodi:docname="lowpass.svg"
   inkscape:version="1.3 (0e150ed, 2023-07-21)"
   xmlns:inkscape="http://www.inkscape.org/namespaces/inkscape"
   xmlns:sodipodi="http://sodipodi.sourceforge.net/DTD/sodipodi-0.dtd"
   xmlns="http://www.w3.org/2000/svg"
   xmlns:svg="http://www.w3.org/2000/svg">
  <defs
     id="defs1" />
  <sodipodi:namedview
     id="namedview1"
     pagecolor="#ffffff"
     bordercolor="#000000"
     borderopacity="0.25"
     inkscape:showpageshadow="2"
     inkscape:pageopacity="0.0"
     inkscape:pagecheckerboard="0"
     inkscape:deskcolor="#d1d1d1"
     inkscape:zoom="0.295"
     inkscape:cx="325.42373"
     inkscape:cy="200"
     inkscape:window-width="1312"
     inkscape:window-height="449"
     inkscape:window-x="0"
     inkscape:window-y="37"
     inkscape:window-maximized="0"
     inkscape:current-layer="svg1" />
  <path
     d="M 0,1.5826604 A 1.5842384,1.5842384 0 0 1 1.589394,8.3915356e-6 h 33.904683 c 3.50317,0 7.824829,2.4237460084644 9.654139,5.4157560084644 L 66.467028,40.287251 c 1.372081,2.2445 4.611145,4.0635 7.239513,4.0635 h 6.629609 a 1.5846349,1.5846349 0 0 1 1.58384,1.589 v 3.56305 a 1.588997,1.588997 0 0 1 -1.58899,1.58939 h -9.794919 c -3.503565,0 -7.815708,-2.43088 -9.629551,-5.42607 L 40.157171,11.403749 C 38.796986,9.1572634 35.56625,7.3362814 32.939072,7.3362814 H 1.583842 A 1.5842384,1.5842384 0 0 1 3.97e-4,5.7532324 v -4.170572 z"
     fill-rule="evenodd"
     id="path1"
     style="stroke-width:0.396555" />
</svg>
