<?xml version="1.0" encoding="UTF-8" standalone="no"?>
<svg
   width="182.85829"
   height="256"
   viewBox="0 0 182.85829 256"
   fill="none"
   version="1.1"
   id="svg1"
   sodipodi:docname="r.svg"
   inkscape:version="1.3 (0e150ed, 2023-07-21)"
   xmlns:inkscape="http://www.inkscape.org/namespaces/inkscape"
   xmlns:sodipodi="http://sodipodi.sourceforge.net/DTD/sodipodi-0.dtd"
   xmlns="http://www.w3.org/2000/svg"
   xmlns:svg="http://www.w3.org/2000/svg">
  <defs
     id="defs1" />
  <sodipodi:namedview
     id="namedview1"
     pagecolor="#ffffff"
     bordercolor="#000000"
     borderopacity="0.25"
     inkscape:showpageshadow="2"
     inkscape:pageopacity="0.0"
     inkscape:pagecheckerboard="0"
     inkscape:deskcolor="#d1d1d1"
     inkscape:zoom="4.9166667"
     inkscape:cx="9.9661017"
     inkscape:cy="14.033898"
     inkscape:window-width="1312"
     inkscape:window-height="449"
     inkscape:window-x="0"
     inkscape:window-y="37"
     inkscape:window-maximized="0"
     inkscape:current-layer="svg1" />
  <path
     fill-rule="evenodd"
     clip-rule="evenodd"
     d="M 0,18.285426 C 0,8.186385 8.186385,0 18.285426,0 h 91.427124 c 40.39525,0 73.14171,32.746454 73.14171,73.141702 0,30.853908 -19.10462,57.246178 -46.13048,67.992528 l 44.20045,88.39906 c 4.51558,9.03209 0.85484,20.01614 -8.17816,24.53264 -9.03208,4.51559 -20.01614,0.85484 -24.53264,-8.17816 L 98.41125,146.2834 H 36.570851 v 91.42713 c 0,10.09904 -8.186385,18.28543 -18.285425,18.28543 C 8.186385,255.99596 0,247.80957 0,237.71053 Z m 36.570851,91.427124 h 73.141699 c 20.19717,0 36.57085,-16.37368 36.57085,-36.570848 0,-20.197167 -16.37368,-36.570851 -36.57085,-36.570851 H 36.570851 Z"
     fill="#333333"
     id="path1"
     style="stroke-width:9.14271" />
</svg>
