<?xml version="1.0" encoding="UTF-8" standalone="no"?>
<!-- Uploaded to: SVG Repo, www.svgrepo.com, Generator: SVG Repo Mixer Tools -->

<svg
   width="255.99979"
   height="283.34607"
   viewBox="0 0 7.6799936 8.5003821"
   fill="none"
   version="1.1"
   id="svg1"
   sodipodi:docname="room.svg"
   inkscape:version="1.3 (0e150ed, 2023-07-21)"
   xmlns:inkscape="http://www.inkscape.org/namespaces/inkscape"
   xmlns:sodipodi="http://sodipodi.sourceforge.net/DTD/sodipodi-0.dtd"
   xmlns="http://www.w3.org/2000/svg"
   xmlns:svg="http://www.w3.org/2000/svg">
  <defs
     id="defs1" />
  <sodipodi:namedview
     id="namedview1"
     pagecolor="#ffffff"
     bordercolor="#000000"
     borderopacity="0.25"
     inkscape:showpageshadow="2"
     inkscape:pageopacity="0.0"
     inkscape:pagecheckerboard="0"
     inkscape:deskcolor="#d1d1d1"
     inkscape:zoom="0.295"
     inkscape:cx="301.69492"
     inkscape:cy="332.20339"
     inkscape:window-width="1312"
     inkscape:window-height="449"
     inkscape:window-x="0"
     inkscape:window-y="37"
     inkscape:window-maximized="0"
     inkscape:current-layer="svg1" />
  <path
     d="M 0.42726658,2.3148028 3.6726907,0.48925491 c 0.061045,-0.034332 0.091546,-0.051494 0.1238822,-0.058221 0.028667,-0.00595 0.058187,-0.00595 0.086854,0 0.032336,0.00673 0.062837,0.023889 0.1238822,0.058221 L 7.2527332,2.3148028 m -6.82546672,0 v 3.6397226 c 0,0.072691 0,0.1089942 0.010661,0.1414578 0.00944,0.02871 0.024857,0.055073 0.045249,0.077341 0.023053,0.025212 0.054719,0.043043 0.1180507,0.078664 L 3.8399999,8.0737903 M 0.42726658,2.3148028 3.8399999,4.0211694 m 0,4.0526209 3.2387693,-1.8218025 c 0.06335,-0.03562 0.095,-0.053452 0.118038,-0.078664 0.02039,-0.022268 0.03583,-0.048631 0.04526,-0.077341 0.01066,-0.032464 0.01066,-0.068767 0.01066,-0.1414578 V 2.3148028 M 3.8399999,8.0737903 V 4.0211694 M 7.2527332,2.3148028 3.8399999,4.0211694"
     stroke="#000000"
     stroke-width="0.853183"
     stroke-linecap="round"
     stroke-linejoin="round"
     id="path1" />
</svg>
