<?xml version="1.0" encoding="UTF-8" standalone="no"?>
<svg
   width="182.85715"
   height="256"
   viewBox="0 0 182.85715 256"
   fill="none"
   version="1.1"
   id="svg1"
   sodipodi:docname="s.svg"
   inkscape:version="1.3 (0e150ed, 2023-07-21)"
   xmlns:inkscape="http://www.inkscape.org/namespaces/inkscape"
   xmlns:sodipodi="http://sodipodi.sourceforge.net/DTD/sodipodi-0.dtd"
   xmlns="http://www.w3.org/2000/svg"
   xmlns:svg="http://www.w3.org/2000/svg">
  <defs
     id="defs1" />
  <sodipodi:namedview
     id="namedview1"
     pagecolor="#ffffff"
     bordercolor="#000000"
     borderopacity="0.25"
     inkscape:showpageshadow="2"
     inkscape:pageopacity="0.0"
     inkscape:pagecheckerboard="0"
     inkscape:deskcolor="#d1d1d1"
     inkscape:zoom="4.9166667"
     inkscape:cx="9.9661017"
     inkscape:cy="14.033898"
     inkscape:window-width="1312"
     inkscape:window-height="449"
     inkscape:window-x="0"
     inkscape:window-y="37"
     inkscape:window-maximized="0"
     inkscape:current-layer="svg1" />
  <path
     fill-rule="evenodd"
     clip-rule="evenodd"
     d="m 73.142857,36.571429 c -20.197486,0 -36.571428,16.373942 -36.571428,36.571428 0,20.197483 16.373942,36.571433 36.571428,36.571433 h 36.571433 c 40.39588,0 73.14285,32.74697 73.14285,73.14285 0,40.39589 -32.74697,73.14286 -73.14285,73.14286 H 73.142857 C 41.2672,256 14.198857,235.62057 4.1664,207.23657 0.800914,197.7152 5.792,187.26766 15.313371,183.90217 c 9.522286,-3.36548 19.968915,1.6256 23.3344,11.14697 5.029486,14.22903 18.600229,24.37943 34.495086,24.37943 h 36.571433 c 20.19748,0 36.57142,-16.37394 36.57142,-36.57143 0,-20.19748 -16.37394,-36.57143 -36.57142,-36.57143 H 73.142857 C 32.746971,146.28571 0,113.53874 0,73.142857 0,32.746971 32.746971,0 73.142857,0 h 36.571433 c 31.87565,0 58.944,20.379429 68.97645,48.763429 3.36549,9.521371 -1.6256,19.968914 -11.14697,23.3344 -9.52228,3.365485 -19.96891,-1.6256 -23.3344,-11.146972 -5.02948,-14.229028 -18.60023,-24.379428 -34.49508,-24.379428 z"
     fill="#333333"
     id="path1"
     style="stroke-width:9.14286" />
</svg>
