<?xml version="1.0" encoding="UTF-8" standalone="no"?>
<!-- Uploaded to: SVG Repo, www.svgrepo.com, Generator: SVG Repo Mixer Tools -->

<svg
   fill="#000000"
   width="256"
   height="256"
   viewBox="0 0 10.24 10.24"
   version="1.1"
   id="svg3"
   sodipodi:docname="wetdry.svg"
   inkscape:version="1.3 (0e150ed, 2023-07-21)"
   xmlns:inkscape="http://www.inkscape.org/namespaces/inkscape"
   xmlns:sodipodi="http://sodipodi.sourceforge.net/DTD/sodipodi-0.dtd"
   xmlns="http://www.w3.org/2000/svg"
   xmlns:svg="http://www.w3.org/2000/svg">
  <defs
     id="defs3" />
  <sodipodi:namedview
     id="namedview3"
     pagecolor="#ffffff"
     bordercolor="#000000"
     borderopacity="0.25"
     inkscape:showpageshadow="2"
     inkscape:pageopacity="0.0"
     inkscape:pagecheckerboard="0"
     inkscape:deskcolor="#d1d1d1"
     inkscape:zoom="0.295"
     inkscape:cx="301.69492"
     inkscape:cy="301.69492"
     inkscape:window-width="1312"
     inkscape:window-height="449"
     inkscape:window-x="0"
     inkscape:window-y="37"
     inkscape:window-maximized="0"
     inkscape:current-layer="svg3" />
  <title
     id="title1" />
  <g
     data-name="Layer 2"
     id="Layer_2"
     transform="matrix(0.42666667,0,0,0.42666667,-1.7066667,-1.7066667)">
    <path
       d="m 18,11 a 1,1 0 0 1 -1,1 5,5 0 0 0 -5,5 1,1 0 0 1 -2,0 5,5 0 0 0 -5,-5 1,1 0 0 1 0,-2 5,5 0 0 0 5,-5 1,1 0 0 1 2,0 5,5 0 0 0 5,5 1,1 0 0 1 1,1 z"
       id="path1" />
    <path
       d="m 19,24 a 1,1 0 0 1 -1,1 2,2 0 0 0 -2,2 1,1 0 0 1 -2,0 2,2 0 0 0 -2,-2 1,1 0 0 1 0,-2 2,2 0 0 0 2,-2 1,1 0 0 1 2,0 2,2 0 0 0 2,2 1,1 0 0 1 1,1 z"
       id="path2" />
    <path
       d="m 28,17 a 1,1 0 0 1 -1,1 4,4 0 0 0 -4,4 1,1 0 0 1 -2,0 4,4 0 0 0 -4,-4 1,1 0 0 1 0,-2 4,4 0 0 0 4,-4 1,1 0 0 1 2,0 4,4 0 0 0 4,4 1,1 0 0 1 1,1 z"
       id="path3" />
  </g>
</svg>
