<?xml version="1.0" encoding="UTF-8" standalone="no"?>
<!-- Uploaded to: SVG Repo, www.svgrepo.com, Generator: SVG Repo Mixer Tools -->

<svg
   width="256.00003"
   height="126.92342"
   viewBox="0 0 4.8000006 2.3798141"
   fill="none"
   version="1.1"
   id="svg1"
   sodipodi:docname="width.svg"
   inkscape:version="1.3 (0e150ed, 2023-07-21)"
   xmlns:inkscape="http://www.inkscape.org/namespaces/inkscape"
   xmlns:sodipodi="http://sodipodi.sourceforge.net/DTD/sodipodi-0.dtd"
   xmlns="http://www.w3.org/2000/svg"
   xmlns:svg="http://www.w3.org/2000/svg">
  <defs
     id="defs1" />
  <sodipodi:namedview
     id="namedview1"
     pagecolor="#ffffff"
     bordercolor="#000000"
     borderopacity="0.25"
     inkscape:showpageshadow="2"
     inkscape:pageopacity="0.0"
     inkscape:pagecheckerboard="0"
     inkscape:deskcolor="#d1d1d1"
     inkscape:zoom="0.295"
     inkscape:cx="318.64407"
     inkscape:cy="155.9322"
     inkscape:window-width="1312"
     inkscape:window-height="449"
     inkscape:window-x="0"
     inkscape:window-y="37"
     inkscape:window-maximized="0"
     inkscape:current-layer="svg1" />
  <path
     fill-rule="evenodd"
     clip-rule="evenodd"
     d="m 1.3182611,0.0531645 c 0.070886,0.070883 0.070886,0.1858121 0,0.2566946 L 0.61972145,1.0083988 H 4.1802571 L 3.4817174,0.3098591 c -0.07087,-0.070882 -0.07087,-0.185812 0,-0.2566946 0.070911,-0.070886 0.1858281,-0.070886 0.2566986,0 l 1.0084012,1.0084013 c 0.070911,0.070883 0.070911,0.185812 0,0.2566946 L 3.738416,2.3266616 c -0.07087,0.07087 -0.1857879,0.07087 -0.2566986,0 -0.07087,-0.07087 -0.07087,-0.185812 0,-0.2566946 L 4.1802571,1.3714233 H 0.61972145 L 1.3182611,2.069967 c 0.070886,0.070883 0.070886,0.1858242 0,0.2566946 -0.070883,0.07087 -0.1858121,0.07087 -0.2566946,0 L 0.05316525,1.3182604 c -0.070887,-0.070883 -0.070887,-0.1858121 0,-0.2566946 L 1.0615665,0.0531645 c 0.070882,-0.070886 0.185812,-0.070886 0.2566946,0 z"
     fill="#000000"
     id="path1"
     style="stroke-width:0.40336" />
</svg>
